<svg xmlns="http://www.w3.org/2000/svg" viewBox="0 0 100 100">
  <!-- Minimalistic whale silhouette -->
  <path
    d="M15 50
       Q15 35 35 32
       Q55 28 75 35
       Q90 40 92 50
       Q90 60 75 65
       Q55 72 35 68
       Q15 65 15 50
       M92 50
       Q98 45 95 40
       Q100 50 95 60
       Q98 55 92 50"
    fill="#1e40af"
  />
  <!-- Eye -->
  <circle cx="30" cy="48" r="3" fill="#F5F0E6"/>
  <!-- Water spout -->
  <path
    d="M55 28 Q52 18 48 12 M55 28 Q58 18 55 10 M55 28 Q55 20 60 14"
    stroke="#1e40af"
    stroke-width="2.5"
    fill="none"
    stroke-linecap="round"
  />
</svg>
